<svg data-v-423bf9ae="" xmlns="http://www.w3.org/2000/svg" viewBox="0 0 278.1012625119461 60" class="font"><!----><!----><!----><g data-v-423bf9ae="" id="7fc1a1fc-2946-4f5d-8f98-4e9a41480d47" fill="white" transform="matrix(4.219409465789795,0,0,4.219409465789795,-2.784811496734619,-14.135019302368164)"><path d="M6.71 4.98L6.89 6.58L7.46 6.58L7.55 4.20L0.66 4.20L0.66 4.63L1.78 4.82L1.78 13.38L0.66 13.57L0.66 14L4.42 14L4.42 13.57L3.15 13.38L3.15 9.63L6.43 9.69L6.43 8.83L3.15 8.92L3.15 4.90ZM15.12 7.83L15.18 7L14.90 6.93L12.68 7.14L12.68 7.57L13.82 7.69L13.82 11.21C13.82 11.90 13.87 12.63 13.87 12.63C13.37 12.88 12.81 13.10 12.10 13.10C11.00 13.10 10.65 12.29 10.65 11.48L10.65 7.41L10.71 7L10.43 6.93L8.22 7.14L8.22 7.57L9.35 7.69L9.35 11.63C9.35 13.12 10.19 14.14 11.52 14.14C12.49 14.14 13.24 13.68 13.86 13.17C13.97 13.86 14.43 14.14 15.01 14.14C15.64 14.14 16.07 13.82 16.07 13.82L16.07 13.44L15.64 13.44C15.22 13.44 15.12 13.19 15.12 12.84ZM21.81 13.24L18.72 13.34L22.51 7.14L22.51 7L17.44 7L17.36 8.96L17.85 8.96L18.07 7.78L20.94 7.66L17.16 13.86L17.16 14L22.44 14L22.57 12.04L22.04 12.04ZM28.42 13.24L25.33 13.34L29.12 7.14L29.12 7L24.05 7L23.97 8.96L24.46 8.96L24.68 7.78L27.55 7.66L23.77 13.86L23.77 14L29.05 14L29.18 12.04L28.64 12.04ZM32.12 17.50L33.43 17.57C33.43 17.57 33.68 15.99 34.43 14.01L36.83 7.62L37.80 7.43L37.80 7L34.83 7L34.83 7.43L35.88 7.62L34.62 11.34C34.34 12.18 34.15 12.92 34.15 12.92L34.09 12.92C34.09 12.92 33.89 12.15 33.59 11.30L32.23 7.62L33.14 7.43L33.14 7L29.88 7L29.88 7.43L30.79 7.62L33.49 14.25C32.56 15.83 32.12 17.50 32.12 17.50ZM41.94 7.63C42.70 7.63 43.20 7.97 43.20 7.97L43.20 11.21C43.20 11.90 43.25 12.49 43.26 12.61C42.81 12.91 42.21 13.10 41.71 13.10C40.39 13.10 39.73 11.96 39.73 10.36C39.73 8.69 40.52 7.63 41.94 7.63ZM44.51 3.42L44.23 3.35L42.07 3.56L42.07 3.99L43.20 4.10L43.20 7.24C43.20 7.24 42.70 6.86 41.79 6.86C39.69 6.86 38.37 8.36 38.37 10.88C38.37 12.60 39.41 14.14 41.03 14.14C42.14 14.14 42.73 13.64 43.25 13.17C43.36 13.86 43.82 14.14 44.39 14.14C45.02 14.14 45.46 13.82 45.46 13.82L45.46 13.44L45.02 13.44C44.60 13.44 44.51 13.19 44.51 12.84ZM52.53 10.40C52.72 8.13 51.80 6.86 49.85 6.86C48.09 6.86 46.62 8.30 46.62 10.63C46.62 12.67 47.88 14.14 49.90 14.14C51.35 14.14 52.25 13.41 52.25 13.41L52.25 12.94C52.25 12.94 51.41 13.27 50.46 13.27C48.93 13.27 47.99 12.07 47.95 10.40ZM49.80 7.57C51.00 7.57 51.24 8.55 51.25 9.66L47.98 9.74C48.10 8.41 48.78 7.57 49.80 7.57ZM56.48 7L53.26 7L53.26 7.43L54.17 7.62L56.70 14.07L57.74 14L60.10 7.62L61.07 7.43L61.07 7L58.11 7L58.11 7.43L59.16 7.63L57.93 11.31C57.65 12.15 57.48 12.91 57.48 12.91L57.43 12.91C57.43 12.91 57.25 12.11 56.92 11.26L55.55 7.62L56.48 7.43ZM64.36 13.41C63.46 13.41 62.97 12.78 62.01 12.66L61.73 13.83C62.31 13.92 63.01 14.14 64.13 14.14C65.38 14.14 66.57 13.51 66.57 12.18C66.57 9.63 62.93 10.19 62.93 8.41C62.93 7.95 63.24 7.59 63.88 7.59C64.72 7.59 65.17 8.22 66.14 8.34L66.42 7.17C65.83 7.08 65.17 6.86 64.29 6.86C62.90 6.86 61.87 7.62 61.87 8.81C61.87 11.33 65.56 10.89 65.56 12.50C65.56 13.03 65.09 13.41 64.36 13.41Z"></path></g><!----><!----></svg>